GIL01_slow3_ik
nRows=3
nColumns=375

# SIMM Motion File Header:
name GIL01_slow3_ik
datacolumns 375
datarows 3
otherdata 1
range 0.97500000 0.99167000
endheader
time	pelvis_tx	pelvis_ty	pelvis_tz	pelvis_tilt	pelvis_list	pelvis_rotation	hip_flexion_r	hip_adduction_r	hip_rotation_r	knee_angle_r	ankle_angle_r	hip_flexion_l	hip_adduction_l	hip_rotation_l	knee_angle_l	ankle_angle_l	lumbar_extension	lumbar_bending	lumbar_rotation	subtalar_angle_r	mtp_angle_r	subtalar_angle_l	mtp_angle_l	asis_r_px	asis_r_py	asis_r_pz	asis_l_px	asis_l_py	asis_l_pz	midasis_px	midasis_py	midasis_pz	psis_r_px	psis_r_py	psis_r_pz	psis_l_px	psis_l_py	psis_l_pz	hip_r_px	hip_r_py	hip_r_pz	hip_l_px	hip_l_py	hip_l_pz	midhip_px	midhip_py	midhip_pz	epicondLat_r_px	epicondLat_r_py	epicondLat_r_pz	epicondMed_r_px	epicondMed_r_py	epicondMed_r_pz	thighwand_r_px	thighwand_r_py	thighwand_r_pz	upperleg1_r_px	upperleg1_r_py	upperleg1_r_pz	upperleg2_r_px	upperleg2_r_py	upperleg2_r_pz	malleolusLat_r_px	malleolusLat_r_py	malleolusLat_r_pz	malleolusMedv_r_px	malleolusMedv_r_py	malleolusMedv_r_pz	shankwand_r_px	shankwand_r_py	shankwand_r_pz	lowerleg1_r_px	lowerleg1_r_py	lowerleg1_r_pz	knee_r_px	knee_r_py	knee_r_pz	ankle_r_px	ankle_r_py	ankle_r_pz	toe_r_px	toe_r_py	toe_r_pz	epicondLat_l_px	epicondLat_l_py	epicondLat_l_pz	epicondMed_l_px	epicondMed_l_py	epicondMed_l_pz	thighwand_l_px	thighwand_l_py	thighwand_l_pz	upperleg1_l_px	upperleg1_l_py	upperleg1_l_pz	upperleg2_l_px	upperleg2_l_py	upperleg2_l_pz	malleolusLat_l_px	malleolusLat_l_py	malleolusLat_l_pz	malleolusMedv_l_px	malleolusMedv_l_py	malleolusMedv_l_pz	shankwand_l_px	shankwand_l_py	shankwand_l_pz	lowerleg1_l_px	lowerleg1_l_py	lowerleg1_l_pz	knee_l_px	knee_l_py	knee_l_pz	ankle_l_px	ankle_l_py	ankle_l_pz	toe_l_px	toe_l_py	toe_l_pz	subclavicle_r_px	subclavicle_r_py	subclavicle_r_pz	subclavicle_l_px	subclavicle_l_py	subclavicle_l_pz	neck_px	neck_py	neck_pz	sternalnotch_px	sternalnotch_py	sternalnotch_pz	xyphoidprocess_px	xyphoidprocess_py	xyphoidprocess_pz	midhip_tx	midhip_ty	midhip_tz	hip_r_tx	hip_r_ty	hip_r_tz	hip_l_tx	hip_l_ty	hip_l_tz	knee_r_tx	knee_r_ty	knee_r_tz	knee_l_tx	knee_l_ty	knee_l_tz	ankle_r_tx	ankle_r_ty	ankle_r_tz	ankle_l_tx	ankle_l_ty	ankle_l_tz	midasis_tx	midasis_ty	midasis_tz	asis_r_tx	asis_r_ty	asis_r_tz	asis_l_tx	asis_l_ty	asis_l_tz	psis_r_tx	psis_r_ty	psis_r_tz	psis_l_tx	psis_l_ty	psis_l_tz	epicondLat_r_tx	epicondLat_r_ty	epicondLat_r_tz	epicondLat_l_tx	epicondLat_l_ty	epicondLat_l_tz	epicondMed_r_tx	epicondMed_r_ty	epicondMed_r_tz	epicondMed_l_tx	epicondMed_l_ty	epicondMed_l_tz	malleolusLat_r_tx	malleolusLat_r_ty	malleolusLat_r_tz	malleolusLat_l_tx	malleolusLat_l_ty	malleolusLat_l_tz	malleolusMedv_r_tx	malleolusMedv_r_ty	malleolusMedv_r_tz	malleolusMedv_l_tx	malleolusMedv_l_ty	malleolusMedv_l_tz	neck_tx	neck_ty	neck_tz	subclavicle_r_tx	subclavicle_r_ty	subclavicle_r_tz	subclavicle_l_tx	subclavicle_l_ty	subclavicle_l_tz	sternalnotch_tx	sternalnotch_ty	sternalnotch_tz	xyphoidprocess_tx	xyphoidprocess_ty	xyphoidprocess_tz	thighwand_r_tx	thighwand_r_ty	thighwand_r_tz	thighwand_l_tx	thighwand_l_ty	thighwand_l_tz	upperleg1_r_tx	upperleg1_r_ty	upperleg1_r_tz	upperleg1_l_tx	upperleg1_l_ty	upperleg1_l_tz	upperleg2_r_tx	upperleg2_r_ty	upperleg2_r_tz	upperleg2_l_tx	upperleg2_l_ty	upperleg2_l_tz	shankwand_r_tx	shankwand_r_ty	shankwand_r_tz	shankwand_l_tx	shankwand_l_ty	shankwand_l_tz	lowerleg1_r_tx	lowerleg1_r_ty	lowerleg1_r_tz	lowerleg1_l_tx	lowerleg1_l_ty	lowerleg1_l_tz	toe_r_tx	toe_r_ty	toe_r_tz	toe_l_tx	toe_l_ty	toe_l_tz	ground_force_vx	ground_force_vy	ground_force_vz	ground_force_px	ground_force_py	ground_force_pz	ground_force_vx	ground_force_vy	ground_force_vz	ground_force_px	ground_force_py	ground_force_pz	ground_torque_x	ground_torque_y	ground_torque_z	ground_torque_x	ground_torque_y	ground_torque_z	ground_marker_px	ground_marker_py	ground_marker_pz	ground_marker_px	ground_marker_py	ground_marker_pz	ground_marker_px	ground_marker_py	ground_marker_pz	ground_marker_px	ground_marker_py	ground_marker_pz	ground_marker_px	ground_marker_py	ground_marker_pz	ground_marker_px	ground_marker_py	ground_marker_pz	ground_marker_px	ground_marker_py	ground_marker_pz	ground_marker_px	ground_marker_py	ground_marker_pz	ground_marker_px	ground_marker_py	ground_marker_pz	ground_marker_px	ground_marker_py	ground_marker_pz	ground_marker_px	ground_marker_py	ground_marker_pz	ground_marker_px	ground_marker_py	ground_marker_pz	ground_marker_px	ground_marker_py	ground_marker_pz	ground_marker_px	ground_marker_py	ground_marker_pz	ground_marker_px	ground_marker_py	ground_marker_pz	ground_marker_px	ground_marker_py	ground_marker_pz	ground_marker_px	ground_marker_py	ground_marker_pz	ground_marker_px	ground_marker_py	ground_marker_pz	ground_marker_px	ground_marker_py	ground_marker_pz	ground_marker_px	ground_marker_py	ground_marker_pz	ground_marker_px	ground_marker_py	ground_marker_pz	ground_marker_px	ground_marker_py	ground_marker_pz	ground_marker_px	ground_marker_py	ground_marker_pz	ground_marker_px	ground_marker_py	ground_marker_pz	ground_marker_px	ground_marker_py	ground_marker_pz	ground_marker_px	ground_marker_py	ground_marker_pz	ground_marker_px	ground_marker_py	ground_marker_pz	ground_marker_px	ground_marker_py	ground_marker_pz	ground_marker_px	ground_marker_py	ground_marker_pz	ground_marker_px	ground_marker_py	ground_marker_pz	ground_marker_px	ground_marker_py	ground_marker_pz	ground_marker_px	ground_marker_py	ground_marker_pz	ground_marker_px	ground_marker_py	ground_marker_pz	ground_marker_px	ground_marker_py	ground_marker_pz	ground_marker_px	ground_marker_py	ground_marker_pz	ground_marker_px	ground_marker_py	ground_marker_pz	ground_marker_px	ground_marker_py	ground_marker_pz
      0.97500000	     -0.48644390	      0.78202318	      0.23974458	     -3.63288996	     -4.60544689	      1.05118325	     21.03541596	      8.18894047	     -2.99635605	     -4.81468972	    -11.25820147	    -15.81305388	     -1.78735493	    -12.05898004	     -9.37341918	      6.66464402	      5.97263937	      3.66096785	    -10.63240359	      0.00000000	      0.00000000	      0.00000000	      0.00000000	     -0.46442280	      0.79018325	      0.34202078	     -0.45186174	      0.76827688	      0.13398476	     -0.47500943	      0.78128027	      0.23953501	     -0.61296008	      0.83449333	      0.25641423	     -0.61352791	      0.82835660	      0.20161322	     -0.54600630	      0.73734499	      0.31326907	     -0.54920464	      0.72655107	      0.17702612	     -0.54760547	      0.73194803	      0.24514760	     -0.47758273	      0.38748157	      0.34742224	     -0.47413904	      0.39914972	      0.24089966	     -0.39949061	      0.52486917	      0.40597471	     -0.48254994	      0.56662138	      0.37697873	     -0.46690846	      0.48255356	      0.35522305	     -0.38132752	      0.06054569	      0.30858933	     -0.36960150	      0.06911206	      0.25015332	     -0.43351648	      0.15555114	      0.39032507	     -0.41623229	      0.12987426	      0.31367073	     -0.45107552	      0.41693313	      0.28836042	     -0.37714465	      0.07631441	      0.26230897	     -0.27424351	      0.03263843	      0.29194561	     -0.70353297	      0.42334924	      0.14847505	     -0.71305477	      0.38130672	      0.28209205	     -0.50048137	      0.46593433	      0.14192111	     -0.54375358	      0.55093932	      0.12394440	     -0.63250947	      0.45555671	      0.17939488	     -0.85468331	      0.10829464	      0.18149514	     -0.83083991	      0.09702438	      0.23086950	     -0.81148405	      0.22212331	      0.10167120	     -0.82203579	      0.18677686	      0.17721676	     -0.66346670	      0.41169513	      0.19472586	     -0.83070693	      0.10617950	      0.22399138	     -0.76427923	      0.03697830	      0.16091946	     -0.53525683	      1.14952393	      0.28274561	     -0.52332538	      1.15933644	      0.20913466	     -0.63729841	      1.18935314	      0.21902812	     -0.54260049	      1.15086832	      0.24188488	     -0.49836283	      1.07596373	      0.24150303	     -0.53805500	      0.72962900	      0.25052700	     -0.54970800	      0.73251800	      0.31327900	     -0.55513700	      0.72256600	      0.18345800	     -0.44877900	      0.40410600	      0.28477000	     -0.66028900	      0.42071600	      0.20247100	     -0.37580300	      0.06879000	      0.26277300	     -0.83702000	      0.10234500	      0.21665900	     -0.48034900	      0.79411700	      0.24025200	     -0.47612500	      0.80186100	      0.34127300	     -0.48457300	      0.78637300	      0.13923100	     -0.63557200	      0.84078300	      0.27629000	     -0.63783700	      0.83579500	      0.22090000	     -0.44688500	      0.39993000	      0.33957800	     -0.67281900	      0.42174000	      0.14944100	     -0.45151700	      0.40849700	      0.24546600	     -0.65402100	      0.40020400	      0.25091000	     -0.38560500	      0.06430100	      0.29868900	     -0.84938400	      0.10767300	      0.18219500	     -0.37055100	      0.07435400	      0.23953300	     -0.83256300	      0.10505600	      0.24671200	     -0.63628200	      1.19985700	      0.21991900	     -0.53331400	      1.14586000	      0.28075000	     -0.52104400	      1.15073500	      0.20604600	     -0.54135500	      1.14630700	      0.23952300	     -0.50845600	      1.06587100	      0.24212000	     -0.38005200	      0.54404900	      0.40340700	     -0.48120000	      0.49432100	      0.15448200	     -0.46805200	      0.57623700	      0.37863600	     -0.53673800	      0.57226000	      0.13415000	     -0.44609900	      0.49591600	      0.35791800	     -0.57327700	      0.49304600	      0.14493400	     -0.42686800	      0.16367000	      0.38061300	     -0.78659000	      0.21525800	      0.10070800	     -0.40928500	      0.13847600	      0.30423000	     -0.80839400	      0.18455600	      0.17577800	     -0.27855000	      0.03998400	      0.28932000	     -0.76072900	      0.03882600	      0.19745000	    -47.32227320	    273.04823464	    -12.83665752	     -0.37314362	      0.00000000	      0.27230054	     36.24222427	    164.62807398	     -1.54683685	     -0.74460461	      0.00000000	      0.20786453	      0.00000000	      0.25933752	      0.00000000	      0.00000000	     -0.53741479	      0.00000000	     -0.53805482	      0.72962922	      0.25052693	     -0.54970843	      0.73251820	      0.31327933	     -0.55513650	      0.72256643	      0.18345779	     -0.44877911	      0.40410566	      0.28476951	     -0.66028935	      0.42071608	      0.20247149	     -0.37580273	      0.06879006	      0.26277274	     -0.83702022	      0.10234545	      0.21665885	     -0.48034927	      0.79411745	      0.24025160	     -0.47612539	      0.80186141	      0.34127262	     -0.48457316	      0.78637344	      0.13923056	     -0.63557220	      0.84078282	      0.27628982	     -0.63783711	      0.83579469	      0.22089994	     -0.44688538	      0.39992964	      0.33957803	     -0.67281884	      0.42174044	      0.14944121	     -0.45151696	      0.40849659	      0.24546644	     -0.65402079	      0.40020362	      0.25091049	     -0.38560519	      0.06430057	      0.29868940	     -0.84938425	      0.10767310	      0.18219516	     -0.37055051	      0.07435447	      0.23953274	     -0.83256298	      0.10505639	      0.24671215	     -0.63628215	      1.19985652	      0.21991882	     -0.53331435	      1.14586031	      0.28074959	     -0.52104366	      1.15073514	      0.20604609	     -0.54135466	      1.14630711	      0.23952284	     -0.50845641	      1.06587064	      0.24212009	     -0.38005167	      0.54404867	      0.40340701	     -0.48120025	      0.49432096	      0.15448187	     -0.46805233	      0.57623661	      0.37863597	     -0.53673750	      0.57225996	      0.13414977	     -0.44609863	      0.49591643	      0.35791773	     -0.57327712	      0.49304625	      0.14493449	     -0.42686766	      0.16367000	      0.38061270	     -0.78658968	      0.21525751	      0.10070800	     -0.40928504	      0.13847636	      0.30422971	     -0.80839390	      0.18455566	      0.17577806	     -0.27854976	      0.03998384	      0.28932044	     -0.76072919	      0.03882607	      0.19744979
      0.98333000	     -0.47995866	      0.78347330	      0.24097562	     -3.60285394	     -4.58640953	      0.84952872	     20.70886932	      8.28044513	     -3.29980465	     -5.29684827	    -10.64506371	    -15.44777504	     -1.96345958	    -12.02600204	    -10.81377009	      5.43987214	      5.94188874	      3.69959476	    -10.58419326	      0.00000000	      0.00000000	      0.00000000	      0.00000000	     -0.45830452	      0.79163971	      0.34332963	     -0.44499314	      0.76976669	      0.13533676	     -0.46852293	      0.78273964	      0.24080624	     -0.60657504	      0.83583959	      0.25720525	     -0.60694490	      0.82970853	      0.20240191	     -0.53974361	      0.73873890	      0.31428500	     -0.54245336	      0.72795762	      0.17803045	     -0.54109848	      0.73334826	      0.24615772	     -0.47347916	      0.38841252	      0.34794620	     -0.46906142	      0.40038455	      0.24149330	     -0.39516069	      0.52520231	      0.40758589	     -0.47774517	      0.56748602	      0.37800960	     -0.46236592	      0.48340197	      0.35613011	     -0.38155762	      0.06051707	      0.30890955	     -0.36925111	      0.06909096	      0.25059414	     -0.43308641	      0.15599321	      0.39051560	     -0.41554736	      0.13030369	      0.31392340	     -0.44624722	      0.41788646	      0.28920235	     -0.37679112	      0.07636099	      0.26271138	     -0.27436452	      0.03226222	      0.29334886	     -0.69445888	      0.42373896	      0.14787964	     -0.70428713	      0.38123155	      0.28132727	     -0.49169190	      0.46780401	      0.14238248	     -0.53549356	      0.55254841	      0.12445772	     -0.62381143	      0.45636473	      0.17921957	     -0.85075226	      0.11199889	      0.18090819	     -0.82730642	      0.10042928	      0.23040355	     -0.80526129	      0.22487653	      0.10100693	     -0.81672852	      0.18989202	      0.17658754	     -0.65434499	      0.41206087	      0.19423824	     -0.82698676	      0.10956491	      0.22350570	     -0.76282793	      0.03729546	      0.16153568	     -0.52901400	      1.15088392	      0.28400670	     -0.51688644	      1.16075372	      0.21043546	     -0.63089306	      1.19073551	      0.22004361	     -0.53624775	      1.15225672	      0.24312731	     -0.49199095	      1.07736315	      0.24280948	     -0.53132900	      0.73113400	      0.25179400	     -0.54336000	      0.73386900	      0.31408000	     -0.54832700	      0.72384200	      0.18424500	     -0.44395100	      0.40502800	      0.28564300	     -0.65135300	      0.42101400	      0.20206600	     -0.37541800	      0.06875900	      0.26327200	     -0.83358700	      0.10578400	      0.21611100	     -0.47380600	      0.79549400	      0.24126000	     -0.46994000	      0.80329600	      0.34228000	     -0.47767100	      0.78769200	      0.14023900	     -0.62934600	      0.84206800	      0.27662000	     -0.63117200	      0.83696700	      0.22117600	     -0.44254400	      0.40071400	      0.34045600	     -0.66365500	      0.42207500	      0.14898300	     -0.44608900	      0.40987600	      0.24597600	     -0.64506700	      0.40042800	      0.25111700	     -0.38561700	      0.06429800	      0.29908200	     -0.84586900	      0.11134900	      0.18165500	     -0.37045700	      0.07450400	      0.23998100	     -0.82871500	      0.10848500	      0.24607100	     -0.62987400	      1.20126600	      0.22092700	     -0.52713700	      1.14722900	      0.28206300	     -0.51456900	      1.15229200	      0.20744200	     -0.53501100	      1.14776600	      0.24081500	     -0.50205000	      1.06735300	      0.24335500	     -0.37542100	      0.54434300	      0.40526600	     -0.47264800	      0.49564100	      0.15504700	     -0.46288200	      0.57716600	      0.37977700	     -0.52867100	      0.57331800	      0.13458000	     -0.44121300	      0.49667300	      0.35886900	     -0.56475600	      0.49374700	      0.14530900	     -0.42629700	      0.16411300	      0.38095800	     -0.78133100	      0.21776000	      0.09998800	     -0.40857900	      0.13886700	      0.30475400	     -0.80353000	      0.18754400	      0.17517900	     -0.27848500	      0.03982600	      0.28949400	     -0.75963700	      0.03923900	      0.19748100	    -47.40457494	    277.36230373	    -12.85440650	     -0.37111130	      0.00000000	      0.27345758	     33.18190344	    142.56249847	     -1.80703238	     -0.74336993	      0.00000000	      0.20884285	      0.00000000	      0.22330359	      0.00000000	      0.00000000	     -0.44998907	      0.00000000	     -0.53132904	      0.73113418	      0.25179368	     -0.54335970	      0.73386866	      0.31407955	     -0.54832739	      0.72384161	      0.18424539	     -0.44395116	      0.40502822	      0.28564307	     -0.65135330	      0.42101365	      0.20206551	     -0.37541762	      0.06875914	      0.26327243	     -0.83358711	      0.10578448	      0.21611060	     -0.47380567	      0.79549420	      0.24125962	     -0.46994039	      0.80329603	      0.34228036	     -0.47767097	      0.78769237	      0.14023888	     -0.62934619	      0.84206802	      0.27661988	     -0.63117170	      0.83696657	      0.22117551	     -0.44254443	      0.40071356	      0.34045550	     -0.66365510	      0.42207518	      0.14898266	     -0.44608930	      0.40987650	      0.24597552	     -0.64506680	      0.40042773	      0.25111732	     -0.38561732	      0.06429812	      0.29908189	     -0.84586871	      0.11134928	      0.18165489	     -0.37045711	      0.07450382	      0.23998086	     -0.82871532	      0.10848457	      0.24607076	     -0.62987387	      1.20126605	      0.22092676	     -0.52713680	      1.14722872	      0.28206342	     -0.51456887	      1.15229213	      0.20744239	     -0.53501076	      1.14776635	      0.24081525	     -0.50204992	      1.06735349	      0.24335462	     -0.37542099	      0.54434294	      0.40526617	     -0.47264844	      0.49564132	      0.15504749	     -0.46288216	      0.57716608	      0.37977678	     -0.52867126	      0.57331759	      0.13458012	     -0.44121259	      0.49667263	      0.35886881	     -0.56475639	      0.49374667	      0.14530919	     -0.42629653	      0.16411310	      0.38095835	     -0.78133124	      0.21775961	      0.09998772	     -0.40857935	      0.13886726	      0.30475366	     -0.80352950	      0.18754360	      0.17517866	     -0.27848521	      0.03982604	      0.28949410	     -0.75963736	      0.03923866	      0.19748126
      0.99167000	     -0.47356609	      0.78492232	      0.24213129	     -3.57671103	     -4.53639237	      0.66792791	     20.31313660	      8.34206309	     -3.53902045	     -5.62309162	    -10.07379284	    -14.98293805	     -2.12605896	    -12.00080859	    -12.37163481	      4.05337769	      5.90526592	      3.70547354	    -10.63580158	      0.00000000	      0.00000000	      0.00000000	      0.00000000	     -0.45224619	      0.79303499	      0.34455972	     -0.43825218	      0.77131171	      0.13659597	     -0.46212936	      0.78419686	      0.24199811	     -0.60027100	      0.83718809	      0.25798984	     -0.60046071	      0.83109373	      0.20318148	     -0.53355414	      0.74009621	      0.31521840	     -0.53581916	      0.72940493	      0.17894865	     -0.53468665	      0.73475057	      0.24708353	     -0.46982806	      0.38925274	      0.34839187	     -0.46454070	      0.40148769	      0.24200853	     -0.39106488	      0.52536305	      0.40899277	     -0.47314957	      0.56826716	      0.37892276	     -0.45815672	      0.48414464	      0.35692325	     -0.38173884	      0.06051411	      0.30909255	     -0.36892045	      0.06909493	      0.25088853	     -0.43266943	      0.15639131	      0.39060386	     -0.41490899	      0.13069698	      0.31406430	     -0.44192439	      0.41869930	      0.28993351	     -0.37645591	      0.07642370	      0.26297318	     -0.27444506	      0.03199208	      0.29450387	     -0.68500989	      0.42395952	      0.14718435	     -0.69498045	      0.38091583	      0.28044939	     -0.48262072	      0.46983180	      0.14262896	     -0.52710014	      0.55424623	      0.12481661	     -0.61477609	      0.45710170	      0.17890980	     -0.84643381	      0.11572963	      0.18027930	     -0.82335830	      0.10385404	      0.22987613	     -0.79868391	      0.22760511	      0.10028664	     -0.81101679	      0.19299614	      0.17590384	     -0.64476741	      0.41228246	      0.19361278	     -0.82285386	      0.11296736	      0.22295983	     -0.76135058	      0.03748528	      0.16213785	     -0.52287917	      1.15224494	      0.28531678	     -0.51044691	      1.16217457	      0.21180448	     -0.62449494	      1.19213963	      0.22096292	     -0.52994316	      1.15364988	      0.24440880	     -0.48567923	      1.07876010	      0.24421492	     -0.52481100	      0.73245100	      0.25269100	     -0.53706400	      0.73521400	      0.31485800	     -0.54159500	      0.72520600	      0.18500600	     -0.43960600	      0.40584100	      0.28640100	     -0.64197700	      0.42123900	      0.20150000	     -0.37502600	      0.06873700	      0.26375800	     -0.82969200	      0.10936700	      0.21555900	     -0.46732200	      0.79691100	      0.24227900	     -0.46379700	      0.80469700	      0.34330600	     -0.47084800	      0.78912500	      0.14125200	     -0.62298400	      0.84335600	      0.27707100	     -0.62458900	      0.83820200	      0.22155500	     -0.43863700	      0.40139200	      0.34121200	     -0.65408100	      0.42235300	      0.14837300	     -0.44159300	      0.41094000	      0.24657100	     -0.63560500	      0.40034900	      0.25086800	     -0.38566300	      0.06430300	      0.29944400	     -0.84188700	      0.11515400	      0.18111000	     -0.37035500	      0.07467000	      0.24036700	     -0.82445400	      0.11200100	      0.24540800	     -0.62351000	      1.20269500	      0.22185000	     -0.52090500	      1.14871700	      0.28336000	     -0.50816800	      1.15381000	      0.20881200	     -0.52868300	      1.14925900	      0.24211300	     -0.49566200	      1.06887300	      0.24470900	     -0.37101900	      0.54445400	      0.40691100	     -0.46377400	      0.49710100	      0.15539300	     -0.45781600	      0.57800400	      0.38079900	     -0.52039100	      0.57448500	      0.13487100	     -0.43675300	      0.49726800	      0.35977400	     -0.55587200	      0.49445200	      0.14541000	     -0.42599800	      0.16452600	      0.38119800	     -0.77562100	      0.22029200	      0.09917000	     -0.40794300	      0.13926300	      0.30519000	     -0.79804500	      0.19051900	      0.17447200	     -0.27846300	      0.03977200	      0.28967900	     -0.75838400	      0.03963200	      0.19756600	    -47.34987388	    281.81975971	    -12.09797513	     -0.36947836	      0.00000000	      0.27441861	     29.89419556	    120.56900075	     -2.02275284	     -0.74215668	      0.00000000	      0.20973622	      0.00000000	      0.20662402	      0.00000000	      0.00000000	     -0.37029077	      0.00000000	     -0.52481145	      0.73245096	      0.25269148	     -0.53706402	      0.73521388	      0.31485799	     -0.54159540	      0.72520608	      0.18500639	     -0.43960568	      0.40584126	      0.28640079	     -0.64197719	      0.42123863	      0.20150039	     -0.37502560	      0.06873728	      0.26375842	     -0.82969177	      0.10936661	      0.21555947	     -0.46732229	      0.79691100	      0.24227870	     -0.46379682	      0.80469728	      0.34330580	     -0.47084779	      0.78912473	      0.14125158	     -0.62298423	      0.84335607	      0.27707094	     -0.62458861	      0.83820164	      0.22155492	     -0.43863696	      0.40139231	      0.34121200	     -0.65408123	      0.42235306	      0.14837319	     -0.44159350	      0.41093975	      0.24657106	     -0.63560545	      0.40034950	      0.25086755	     -0.38566306	      0.06430255	      0.29944354	     -0.84188676	      0.11515374	      0.18110964	     -0.37035516	      0.07466963	      0.24036707	     -0.82445413	      0.11200051	      0.24540789	     -0.62351030	      1.20269501	      0.22184953	     -0.52090472	      1.14871705	      0.28335962	     -0.50816774	      1.15380991	      0.20881212	     -0.52868301	      1.14925873	      0.24211341	     -0.49566174	      1.06887269	      0.24470894	     -0.37101892	      0.54445398	      0.40691060	     -0.46377441	      0.49710074	      0.15539300	     -0.45781574	      0.57800388	      0.38079947	     -0.52039146	      0.57448483	      0.13487123	     -0.43675309	      0.49726838	      0.35977408	     -0.55587208	      0.49445164	      0.14540960	     -0.42599803	      0.16452615	      0.38119841	     -0.77562082	      0.22029187	      0.09917038	     -0.40794328	      0.13926281	      0.30518958	     -0.79804474	      0.19051890	      0.17447211	     -0.27846318	      0.03977161	      0.28967899	     -0.75838351	      0.03963166	      0.19756594
